STARTFONT 2.1
FONT -sun-helmet-medium-r-normal--14-140-75-75-p-76-adobe-fontspecific
SIZE 14 75 75
FONTBOUNDINGBOX 17 16 -3 -3

STARTPROPERTIES 28
FOUNDRY "sun"
FAMILY_NAME "helmet"
WEIGHT_NAME "medium"
SLANT "r"
SETWIDTH_NAME "normal"
ADD_STYLE_NAME ""
PIXEL_SIZE 15
POINT_SIZE 140
RESOLUTION_X 75
RESOLUTION_Y 75
SPACING "p"
AVERAGE_WIDTH 76
CHARSET_REGISTRY "adobe"
CHARSET_ENCODING "fontspecific"
COPYRIGHT "© 1999 Sun Microsystems, Inc."
RAW_PIXELSIZE 1000
RAW_POINTSIZE 964
RAW_ASCENT 893
RAW_DESCENT 216
RAW_AVERAGE_WIDTH 5207
FACE_NAME "HelmetNormalalic5"
_XMBDFED_INFO "Edited with xmbdfed 2.4."
WEIGHT 10
X_HEIGHT -1
QUAD_WIDTH 8
DEFAULT_CHAR 4
FONT_DESCENT 3
FONT_ASCENT 13
ENDPROPERTIES

CHARS 203

STARTCHAR char32
ENCODING 32
SWIDTH 24 0
DWIDTH 4 0
BBX 0 0 0 0
BITMAP
ENDCHAR

STARTCHAR char33
ENCODING 33
SWIDTH 24 0
DWIDTH 4 0
BBX 1 10 2 0
BITMAP
80
80
80
80
80
80
80
80
00
80
ENDCHAR

STARTCHAR char34
ENCODING 34
SWIDTH 36 0
DWIDTH 6 0
BBX 3 3 1 7
BITMAP
A0
A0
A0
ENDCHAR

STARTCHAR char35
ENCODING 35
SWIDTH 49 0
DWIDTH 8 0
BBX 7 11 0 0
BITMAP
24
24
24
FE
24
24
28
FE
48
48
48
ENDCHAR

STARTCHAR char36
ENCODING 36
SWIDTH 55 0
DWIDTH 9 0
BBX 8 12 0 -1
BITMAP
08
3E
4A
48
68
3C
0E
09
C9
4B
3E
08
ENDCHAR

STARTCHAR char37
ENCODING 37
SWIDTH 11 0
DWIDTH 12 0
BBX 11 10 0 0
BITMAP
E100
9100
9200
9240
95E0
6520
0920
0920
1120
10C0
ENDCHAR

STARTCHAR char38
ENCODING 38
SWIDTH 55 0
DWIDTH 9 0
BBX 8 10 0 0
BITMAP
38
6C
64
28
30
7A
CE
84
C6
7B
ENDCHAR

STARTCHAR char39
ENCODING 39
SWIDTH 18 0
DWIDTH 3 0
BBX 2 3 1 7
BITMAP
80
80
80
ENDCHAR

STARTCHAR char40
ENCODING 40
SWIDTH 30 0
DWIDTH 5 0
BBX 3 12 1 -2
BITMAP
20
40
40
80
80
80
80
80
80
40
40
20
ENDCHAR

STARTCHAR char41
ENCODING 41
SWIDTH 30 0
DWIDTH 5 0
BBX 3 12 0 -2
BITMAP
80
40
40
60
20
20
20
20
60
40
40
80
ENDCHAR

STARTCHAR char42
ENCODING 42
SWIDTH 30 0
DWIDTH 5 0
BBX 5 4 0 6
BITMAP
20
F0
60
50
ENDCHAR

STARTCHAR char43
ENCODING 43
SWIDTH 61 0
DWIDTH 10 0
BBX 9 8 0 0
BITMAP
0800
0800
0800
FF80
0800
0800
0800
0800
ENDCHAR

STARTCHAR char44
ENCODING 44
SWIDTH 18 0
DWIDTH 3 0
BBX 1 4 1 -2
BITMAP
80
80
80
80
ENDCHAR

STARTCHAR char45
ENCODING 45
SWIDTH 36 0
DWIDTH 6 0
BBX 4 1 1 3
BITMAP
F0
ENDCHAR

STARTCHAR char46
ENCODING 46
SWIDTH 18 0
DWIDTH 3 0
BBX 1 1 1 0
BITMAP
80
ENDCHAR

STARTCHAR char47
ENCODING 47
SWIDTH 30 0
DWIDTH 5 0
BBX 5 10 0 0
BITMAP
18
10
10
20
20
60
40
40
80
80
ENDCHAR

STARTCHAR char48
ENCODING 48
SWIDTH 49 0
DWIDTH 8 0
BBX 7 10 0 0
BITMAP
3C
44
86
82
82
82
82
C2
44
38
ENDCHAR

STARTCHAR char49
ENCODING 49
SWIDTH 49 0
DWIDTH 8 0
BBX 4 10 1 0
BITMAP
10
30
F0
10
10
10
10
10
10
10
ENDCHAR

STARTCHAR char50
ENCODING 50
SWIDTH 49 0
DWIDTH 8 0
BBX 7 10 0 0
BITMAP
3C
46
42
02
04
18
30
60
40
FE
ENDCHAR

STARTCHAR char51
ENCODING 51
SWIDTH 49 0
DWIDTH 8 0
BBX 7 10 0 0
BITMAP
38
44
C4
04
18
0C
06
86
44
38
ENDCHAR

STARTCHAR char52
ENCODING 52
SWIDTH 49 0
DWIDTH 8 0
BBX 7 10 0 0
BITMAP
04
0C
14
24
64
44
C4
FE
04
04
ENDCHAR

STARTCHAR char53
ENCODING 53
SWIDTH 49 0
DWIDTH 8 0
BBX 7 10 0 0
BITMAP
7C
40
40
78
64
02
02
C2
44
38
ENDCHAR

STARTCHAR char54
ENCODING 54
SWIDTH 49 0
DWIDTH 8 0
BBX 6 10 1 0
BITMAP
78
4C
80
B0
C8
8C
84
84
48
70
ENDCHAR

STARTCHAR char55
ENCODING 55
SWIDTH 49 0
DWIDTH 8 0
BBX 7 10 0 0
BITMAP
FE
04
0C
08
18
10
30
30
20
20
ENDCHAR

STARTCHAR char56
ENCODING 56
SWIDTH 49 0
DWIDTH 8 0
BBX 7 10 0 0
BITMAP
38
44
44
64
38
46
C6
C6
44
38
ENDCHAR

STARTCHAR char57
ENCODING 57
SWIDTH 49 0
DWIDTH 8 0
BBX 7 10 0 0
BITMAP
3C
44
86
86
C6
3A
06
C6
CC
38
ENDCHAR

STARTCHAR char58
ENCODING 58
SWIDTH 24 0
DWIDTH 4 0
BBX 1 7 2 0
BITMAP
80
00
00
00
00
00
80
ENDCHAR

STARTCHAR char59
ENCODING 59
SWIDTH 24 0
DWIDTH 4 0
BBX 2 9 1 -2
BITMAP
40
00
00
00
00
80
40
40
80
ENDCHAR

STARTCHAR char60
ENCODING 60
SWIDTH 49 0
DWIDTH 8 0
BBX 8 7 0 0
BITMAP
07
18
60
C0
30
0C
03
ENDCHAR

STARTCHAR char61
ENCODING 61
SWIDTH 61 0
DWIDTH 10 0
BBX 10 4 -1 2
BITMAP
FFC0
0000
0000
FFC0
ENDCHAR

STARTCHAR char62
ENCODING 62
SWIDTH 49 0
DWIDTH 8 0
BBX 8 7 0 0
BITMAP
C0
38
06
03
0C
30
C0
ENDCHAR

STARTCHAR char63
ENCODING 63
SWIDTH 49 0
DWIDTH 8 0
BBX 7 10 0 0
BITMAP
3C
46
C2
06
0C
08
10
10
00
10
ENDCHAR

STARTCHAR char64
ENCODING 64
SWIDTH 36 0
DWIDTH 16 0
BBX 11 11 2 0
BITMAP
0F00
3180
4040
4FA0
9120
A120
A340
B240
5F80
20C0
1F00
ENDCHAR

STARTCHAR char65
ENCODING 65
SWIDTH 55 0
DWIDTH 9 0
BBX 8 10 0 0
BITMAP
18
18
3C
24
64
66
7E
C3
83
81
ENDCHAR

STARTCHAR char66
ENCODING 66
SWIDTH 55 0
DWIDTH 9 0
BBX 7 10 1 0
BITMAP
FC
86
82
86
FC
86
82
82
86
FC
ENDCHAR

STARTCHAR char67
ENCODING 67
SWIDTH 61 0
DWIDTH 10 0
BBX 9 10 0 0
BITMAP
3E00
6100
C180
8000
8000
8000
C080
4180
6300
3E00
ENDCHAR

STARTCHAR char68
ENCODING 68
SWIDTH 61 0
DWIDTH 10 0
BBX 7 10 1 0
BITMAP
F8
84
82
82
82
82
82
84
8C
F8
ENDCHAR

STARTCHAR char69
ENCODING 69
SWIDTH 55 0
DWIDTH 9 0
BBX 7 10 1 0
BITMAP
FE
80
80
80
FC
80
80
80
80
FE
ENDCHAR

STARTCHAR char70
ENCODING 70
SWIDTH 49 0
DWIDTH 8 0
BBX 6 10 1 0
BITMAP
FC
80
80
80
FC
80
80
80
80
80
ENDCHAR

STARTCHAR char71
ENCODING 71
SWIDTH 5 0
DWIDTH 11 0
BBX 9 10 0 0
BITMAP
3E00
6100
4180
8000
8000
8780
8080
C180
6380
3E80
ENDCHAR

STARTCHAR char72
ENCODING 72
SWIDTH 61 0
DWIDTH 10 0
BBX 7 10 1 0
BITMAP
82
82
82
82
FE
82
82
82
82
82
ENDCHAR

STARTCHAR char73
ENCODING 73
SWIDTH 18 0
DWIDTH 3 0
BBX 1 10 1 0
BITMAP
80
80
80
80
80
80
80
80
80
80
ENDCHAR

STARTCHAR char74
ENCODING 74
SWIDTH 43 0
DWIDTH 7 0
BBX 5 10 0 0
BITMAP
08
08
08
08
08
08
08
88
C8
70
ENDCHAR

STARTCHAR char75
ENCODING 75
SWIDTH 55 0
DWIDTH 9 0
BBX 8 10 1 0
BITMAP
86
8E
88
90
B0
D8
88
84
86
83
ENDCHAR

STARTCHAR char76
ENCODING 76
SWIDTH 49 0
DWIDTH 8 0
BBX 6 10 1 0
BITMAP
80
80
80
80
80
80
80
80
80
FC
ENDCHAR

STARTCHAR char77
ENCODING 77
SWIDTH 11 0
DWIDTH 12 0
BBX 9 10 1 0
BITMAP
8180
C180
C280
C280
A280
A680
B480
9480
9880
8880
ENDCHAR

STARTCHAR char78
ENCODING 78
SWIDTH 61 0
DWIDTH 10 0
BBX 7 10 1 0
BITMAP
82
C2
E2
A2
92
9A
8A
8E
86
82
ENDCHAR

STARTCHAR char79
ENCODING 79
SWIDTH 5 0
DWIDTH 11 0
BBX 9 10 0 0
BITMAP
3E00
6100
C080
8080
8080
8080
8080
4100
6300
3E00
ENDCHAR

STARTCHAR char80
ENCODING 80
SWIDTH 55 0
DWIDTH 9 0
BBX 7 10 1 0
BITMAP
FC
86
82
82
8E
FC
80
80
80
80
ENDCHAR

STARTCHAR char81
ENCODING 81
SWIDTH 5 0
DWIDTH 11 0
BBX 9 11 0 -1
BITMAP
3E00
6100
C080
8080
8080
8080
8080
4780
6300
3F80
0080
ENDCHAR

STARTCHAR char82
ENCODING 82
SWIDTH 55 0
DWIDTH 9 0
BBX 7 10 1 0
BITMAP
FC
86
82
82
8C
FC
84
86
86
82
ENDCHAR

STARTCHAR char83
ENCODING 83
SWIDTH 61 0
DWIDTH 10 0
BBX 8 10 0 0
BITMAP
3E
43
41
60
3C
07
C1
C1
63
1C
ENDCHAR

STARTCHAR char84
ENCODING 84
SWIDTH 49 0
DWIDTH 8 0
BBX 7 10 0 0
BITMAP
FE
10
10
10
10
10
10
10
10
10
ENDCHAR

STARTCHAR char85
ENCODING 85
SWIDTH 61 0
DWIDTH 10 0
BBX 7 10 1 0
BITMAP
82
82
82
82
82
82
82
82
44
38
ENDCHAR

STARTCHAR char86
ENCODING 86
SWIDTH 55 0
DWIDTH 9 0
BBX 8 10 0 0
BITMAP
83
C3
C2
46
66
64
24
3C
18
18
ENDCHAR

STARTCHAR char87
ENCODING 87
SWIDTH 17 0
DWIDTH 13 0
BBX 13 10 -1 0
BITMAP
C710
4518
4510
6510
6DB0
29A0
28A0
28A0
38E0
1040
ENDCHAR

STARTCHAR char88
ENCODING 88
SWIDTH 55 0
DWIDTH 9 0
BBX 8 10 0 0
BITMAP
C2
46
64
3C
18
38
2C
64
C6
83
ENDCHAR

STARTCHAR char89
ENCODING 89
SWIDTH 55 0
DWIDTH 9 0
BBX 8 10 0 0
BITMAP
83
C3
66
2C
38
10
10
10
10
10
ENDCHAR

STARTCHAR char90
ENCODING 90
SWIDTH 55 0
DWIDTH 9 0
BBX 8 10 0 0
BITMAP
FE
06
04
08
18
30
60
40
C0
FF
ENDCHAR

STARTCHAR char91
ENCODING 91
SWIDTH 30 0
DWIDTH 5 0
BBX 2 12 2 -2
BITMAP
C0
80
80
80
80
80
80
80
80
80
80
C0
ENDCHAR

STARTCHAR char92
ENCODING 92
SWIDTH 24 0
DWIDTH 4 0
BBX 4 11 0 0
BITMAP
80
80
80
40
40
40
20
20
20
10
10
ENDCHAR

STARTCHAR char93
ENCODING 93
SWIDTH 30 0
DWIDTH 5 0
BBX 3 12 0 -2
BITMAP
E0
20
20
20
20
20
20
20
20
20
20
E0
ENDCHAR

STARTCHAR char94
ENCODING 94
SWIDTH 0 0
DWIDTH 0 0
BBX 4 2 -2 11
BITMAP
60
F0
ENDCHAR

STARTCHAR char95
ENCODING 95
SWIDTH 55 0
DWIDTH 9 0
BBX 8 1 0 -2
BITMAP
FF
ENDCHAR

STARTCHAR char96
ENCODING 96
SWIDTH 0 0
DWIDTH 0 0
BBX 3 1 -2 8
BITMAP
40
ENDCHAR

STARTCHAR char97
ENCODING 97
SWIDTH 49 0
DWIDTH 8 0
BBX 7 7 0 0
BITMAP
7C
C4
0C
74
84
8C
76
ENDCHAR

STARTCHAR char98
ENCODING 98
SWIDTH 55 0
DWIDTH 9 0
BBX 6 10 1 0
BITMAP
80
80
80
F8
84
84
84
84
C8
B8
ENDCHAR

STARTCHAR char99
ENCODING 99
SWIDTH 49 0
DWIDTH 8 0
BBX 7 7 0 0
BITMAP
7C
C6
80
80
82
46
3C
ENDCHAR

STARTCHAR char100
ENCODING 100
SWIDTH 55 0
DWIDTH 9 0
BBX 7 10 0 0
BITMAP
02
02
02
7A
C6
82
82
82
46
7A
ENDCHAR

STARTCHAR char101
ENCODING 101
SWIDTH 49 0
DWIDTH 8 0
BBX 7 7 0 0
BITMAP
7C
C4
C6
FE
80
44
3C
ENDCHAR

STARTCHAR char102
ENCODING 102
SWIDTH 24 0
DWIDTH 4 0
BBX 4 10 0 0
BITMAP
70
40
40
F0
40
40
40
40
40
40
ENDCHAR

STARTCHAR char103
ENCODING 103
SWIDTH 49 0
DWIDTH 8 0
BBX 7 9 0 -2
BITMAP
3E
46
82
82
C6
6E
3A
C6
7C
ENDCHAR

STARTCHAR char104
ENCODING 104
SWIDTH 49 0
DWIDTH 8 0
BBX 6 10 1 0
BITMAP
80
80
80
F8
84
84
84
84
84
84
ENDCHAR

STARTCHAR char105
ENCODING 105
SWIDTH 18 0
DWIDTH 3 0
BBX 1 10 1 0
BITMAP
80
00
00
80
80
80
80
80
80
80
ENDCHAR

STARTCHAR char106
ENCODING 106
SWIDTH 18 0
DWIDTH 3 0
BBX 3 12 -1 -2
BITMAP
20
00
00
20
20
20
20
20
20
20
20
E0
ENDCHAR

STARTCHAR char107
ENCODING 107
SWIDTH 49 0
DWIDTH 8 0
BBX 6 10 1 0
BITMAP
80
80
80
98
B0
E0
F0
98
88
8C
ENDCHAR

STARTCHAR char108
ENCODING 108
SWIDTH 18 0
DWIDTH 3 0
BBX 1 10 1 0
BITMAP
80
80
80
80
80
80
80
80
80
80
ENDCHAR

STARTCHAR char109
ENCODING 109
SWIDTH 11 0
DWIDTH 12 0
BBX 9 7 1 0
BITMAP
F700
8880
8880
8880
8880
8880
8880
ENDCHAR

STARTCHAR char110
ENCODING 110
SWIDTH 49 0
DWIDTH 8 0
BBX 6 7 1 0
BITMAP
F8
84
84
84
84
84
84
ENDCHAR

STARTCHAR char111
ENCODING 111
SWIDTH 49 0
DWIDTH 8 0
BBX 7 7 0 0
BITMAP
78
C4
82
82
82
44
38
ENDCHAR

STARTCHAR char112
ENCODING 112
SWIDTH 55 0
DWIDTH 9 0
BBX 6 9 1 -2
BITMAP
F8
84
84
84
84
C8
B8
80
80
ENDCHAR

STARTCHAR char113
ENCODING 113
SWIDTH 55 0
DWIDTH 9 0
BBX 7 9 0 -2
BITMAP
7A
C6
82
82
C2
46
3A
02
02
ENDCHAR

STARTCHAR char114
ENCODING 114
SWIDTH 30 0
DWIDTH 5 0
BBX 4 7 1 0
BITMAP
B0
C0
80
80
80
80
80
ENDCHAR

STARTCHAR char115
ENCODING 115
SWIDTH 43 0
DWIDTH 7 0
BBX 6 7 0 0
BITMAP
38
44
70
18
C4
C4
78
ENDCHAR

STARTCHAR char116
ENCODING 116
SWIDTH 24 0
DWIDTH 4 0
BBX 4 10 0 0
BITMAP
40
40
40
F0
40
40
40
40
40
70
ENDCHAR

STARTCHAR char117
ENCODING 117
SWIDTH 49 0
DWIDTH 8 0
BBX 6 7 1 0
BITMAP
84
84
84
84
84
8C
74
ENDCHAR

STARTCHAR char118
ENCODING 118
SWIDTH 43 0
DWIDTH 7 0
BBX 6 7 0 0
BITMAP
84
CC
C8
58
78
30
30
ENDCHAR

STARTCHAR char119
ENCODING 119
SWIDTH 61 0
DWIDTH 10 0
BBX 11 7 -1 0
BITMAP
4440
4A40
6AC0
6AC0
2A80
3980
3100
ENDCHAR

STARTCHAR char120
ENCODING 120
SWIDTH 43 0
DWIDTH 7 0
BBX 7 7 0 0
BITMAP
CC
6C
30
30
78
CC
84
ENDCHAR

STARTCHAR char121
ENCODING 121
SWIDTH 43 0
DWIDTH 7 0
BBX 7 9 0 -2
BITMAP
84
C4
4C
6C
28
38
30
30
E0
ENDCHAR

STARTCHAR char122
ENCODING 122
SWIDTH 43 0
DWIDTH 7 0
BBX 6 7 0 0
BITMAP
FC
08
10
30
60
C0
FC
ENDCHAR

STARTCHAR char123
ENCODING 123
SWIDTH 30 0
DWIDTH 5 0
BBX 3 14 1 -3
BITMAP
20
60
40
40
40
40
80
80
40
40
40
40
40
20
ENDCHAR

STARTCHAR char124
ENCODING 124
SWIDTH 24 0
DWIDTH 4 0
BBX 1 11 1 0
BITMAP
80
80
80
80
80
80
80
80
80
80
80
ENDCHAR

STARTCHAR char125
ENCODING 125
SWIDTH 30 0
DWIDTH 5 0
BBX 3 14 1 -3
BITMAP
80
40
40
40
40
40
20
20
40
40
40
40
40
80
ENDCHAR

STARTCHAR char126
ENCODING 126
SWIDTH 0 0
DWIDTH 0 0
BBX 6 1 -3 11
BITMAP
78
ENDCHAR

STARTCHAR char128
ENCODING 128
SWIDTH 49 0
DWIDTH 8 0
BBX 8 10 0 0
BITMAP
1F
20
60
FE
40
FE
40
20
31
1F
ENDCHAR

STARTCHAR char130
ENCODING 130
SWIDTH 18 0
DWIDTH 3 0
BBX 2 4 0 -2
BITMAP
80
40
40
40
ENDCHAR

STARTCHAR char131
ENCODING 131
SWIDTH 0 0
DWIDTH 0 0
BBX 4 2 -2 11
BITMAP
60
F0
ENDCHAR

STARTCHAR char132
ENCODING 132
SWIDTH 36 0
DWIDTH 6 0
BBX 3 3 1 -2
BITMAP
A0
A0
A0
ENDCHAR

STARTCHAR char133
ENCODING 133
SWIDTH 36 0
DWIDTH 16 0
BBX 10 1 2 0
BITMAP
8840
ENDCHAR

STARTCHAR char134
ENCODING 134
SWIDTH 43 0
DWIDTH 7 0
BBX 6 11 0 -1
BITMAP
10
10
10
FC
30
30
30
30
30
30
30
ENDCHAR

STARTCHAR char136
ENCODING 136
SWIDTH 0 0
DWIDTH 0 0
BBX 4 2 -2 8
BITMAP
60
B0
ENDCHAR

STARTCHAR char138
ENCODING 138
SWIDTH 29 0
DWIDTH 15 0
BBX 0 0 0 0
BITMAP
ENDCHAR

STARTCHAR char139
ENCODING 139
SWIDTH 30 0
DWIDTH 5 0
BBX 3 4 1 2
BITMAP
60
C0
C0
60
ENDCHAR

STARTCHAR char140
ENCODING 140
SWIDTH 29 0
DWIDTH 15 0
BBX 14 10 0 0
BITMAP
3FFC
6300
C100
8100
81FC
8100
8100
4100
6300
3DFC
ENDCHAR

STARTCHAR char141
ENCODING 141
SWIDTH 29 0
DWIDTH 15 0
BBX 0 0 0 0
BITMAP
ENDCHAR

STARTCHAR char145
ENCODING 145
SWIDTH 18 0
DWIDTH 3 0
BBX 2 3 1 7
BITMAP
80
80
80
ENDCHAR

STARTCHAR char146
ENCODING 146
SWIDTH 18 0
DWIDTH 3 0
BBX 2 3 0 7
BITMAP
40
40
40
ENDCHAR

STARTCHAR char147
ENCODING 147
SWIDTH 36 0
DWIDTH 6 0
BBX 4 3 1 7
BITMAP
A0
A0
A0
ENDCHAR

STARTCHAR char148
ENCODING 148
SWIDTH 36 0
DWIDTH 6 0
BBX 3 3 1 7
BITMAP
A0
A0
A0
ENDCHAR

STARTCHAR char149
ENCODING 149
SWIDTH 30 0
DWIDTH 5 0
BBX 4 4 0 3
BITMAP
60
F0
F0
60
ENDCHAR

STARTCHAR char150
ENCODING 150
SWIDTH 49 0
DWIDTH 8 0
BBX 7 1 0 3
BITMAP
FE
ENDCHAR

STARTCHAR char151
ENCODING 151
SWIDTH 61 0
DWIDTH 10 0
BBX 10 1 -1 4
BITMAP
FFC0
ENDCHAR

STARTCHAR char152
ENCODING 152
SWIDTH 0 0
DWIDTH 0 0
BBX 4 2 -2 8
BITMAP
F0
A0
ENDCHAR

STARTCHAR char153
ENCODING 153
SWIDTH 17 0
DWIDTH 13 0
BBX 11 5 0 4
BITMAP
FA60
2660
2660
25A0
64E0
ENDCHAR

STARTCHAR char155
ENCODING 155
SWIDTH 30 0
DWIDTH 5 0
BBX 3 4 1 2
BITMAP
C0
60
60
80
ENDCHAR

STARTCHAR char156
ENCODING 156
SWIDTH 17 0
DWIDTH 13 0
BBX 12 7 0 0
BITMAP
7DE0
C630
8210
83F0
8200
4630
39E0
ENDCHAR

STARTCHAR char157
ENCODING 157
SWIDTH 29 0
DWIDTH 15 0
BBX 0 0 0 0
BITMAP
ENDCHAR

STARTCHAR char159
ENCODING 159
SWIDTH 55 0
DWIDTH 9 0
BBX 8 13 0 0
BITMAP
0C
2C
00
83
C2
64
2C
38
10
10
10
10
10
ENDCHAR

STARTCHAR char160
ENCODING 160
SWIDTH 24 0
DWIDTH 4 0
BBX 0 0 0 0
BITMAP
ENDCHAR

STARTCHAR char161
ENCODING 161
SWIDTH 24 0
DWIDTH 4 0
BBX 1 10 1 0
BITMAP
80
00
80
80
80
80
80
80
80
80
ENDCHAR

STARTCHAR char162
ENCODING 162
SWIDTH 49 0
DWIDTH 8 0
BBX 7 11 0 -2
BITMAP
10
38
7C
D6
90
90
92
56
7C
10
10
ENDCHAR

STARTCHAR char163
ENCODING 163
SWIDTH 55 0
DWIDTH 9 0
BBX 8 10 0 0
BITMAP
3C
42
C3
C0
40
F8
20
20
F9
DE
ENDCHAR

STARTCHAR char164
ENCODING 164
SWIDTH 0 0
DWIDTH 0 0
BBX 3 2 -1 10
BITMAP
40
80
ENDCHAR

STARTCHAR char165
ENCODING 165
SWIDTH 0 0
DWIDTH 0 0
BBX 4 2 -2 11
BITMAP
10
60
ENDCHAR

STARTCHAR char166
ENCODING 166
SWIDTH 29 0
DWIDTH 15 0
BBX 0 0 0 0
BITMAP
ENDCHAR

STARTCHAR char167
ENCODING 167
SWIDTH 49 0
DWIDTH 8 0
BBX 7 13 0 -3
BITMAP
3C
44
40
70
98
8E
C2
72
1C
0C
44
4C
38
ENDCHAR

STARTCHAR char168
ENCODING 168
SWIDTH 0 0
DWIDTH 0 0
BBX 4 1 -2 8
BITMAP
90
ENDCHAR

STARTCHAR char169
ENCODING 169
SWIDTH 5 0
DWIDTH 11 0
BBX 10 10 0 0
BITMAP
0E00
3100
4E80
5240
A240
A040
A040
5E40
6080
1F00
ENDCHAR

STARTCHAR char170
ENCODING 170
SWIDTH 0 0
DWIDTH 0 0
BBX 4 2 -2 11
BITMAP
10
90
ENDCHAR

STARTCHAR char171
ENCODING 171
SWIDTH 36 0
DWIDTH 6 0
BBX 5 5 0 1
BITMAP
48
D0
90
48
48
ENDCHAR

STARTCHAR char172
ENCODING 172
SWIDTH 61 0
DWIDTH 10 0
BBX 9 4 0 0
BITMAP
FF80
0080
0080
0080
ENDCHAR

STARTCHAR char174
ENCODING 174
SWIDTH 5 0
DWIDTH 11 0
BBX 10 10 0 0
BITMAP
0E00
3100
5C80
5240
9240
9C40
9640
5B40
6180
1E00
ENDCHAR

STARTCHAR char176
ENCODING 176
SWIDTH 24 0
DWIDTH 4 0
BBX 4 5 0 5
BITMAP
60
90
90
90
60
ENDCHAR

STARTCHAR char177
ENCODING 177
SWIDTH 49 0
DWIDTH 8 0
BBX 7 9 0 0
BITMAP
10
10
10
FE
10
10
10
00
FE
ENDCHAR

STARTCHAR char179
ENCODING 179
SWIDTH 29 0
DWIDTH 15 0
BBX 0 0 0 0
BITMAP
ENDCHAR

STARTCHAR char180
ENCODING 180
SWIDTH 0 0
DWIDTH 0 0
BBX 3 2 -1 7
BITMAP
C0
80
ENDCHAR

STARTCHAR char182
ENCODING 182
SWIDTH 61 0
DWIDTH 10 0
BBX 7 12 1 -2
BITMAP
3E
64
E4
E4
64
24
24
24
24
24
24
24
ENDCHAR

STARTCHAR char183
ENCODING 183
SWIDTH 12 0
DWIDTH 2 0
BBX 1 1 1 4
BITMAP
80
ENDCHAR

STARTCHAR char184
ENCODING 184
SWIDTH 0 0
DWIDTH 0 0
BBX 1 2 -1 -3
BITMAP
80
80
ENDCHAR

STARTCHAR char185
ENCODING 185
SWIDTH 29 0
DWIDTH 15 0
BBX 0 0 0 0
BITMAP
ENDCHAR

STARTCHAR char186
ENCODING 186
SWIDTH 0 0
DWIDTH 0 0
BBX 6 1 -3 11
BITMAP
78
ENDCHAR

STARTCHAR char187
ENCODING 187
SWIDTH 36 0
DWIDTH 6 0
BBX 5 5 0 1
BITMAP
90
58
48
D0
90
ENDCHAR

STARTCHAR char189
ENCODING 189
SWIDTH 29 0
DWIDTH 15 0
BBX 0 0 0 0
BITMAP
ENDCHAR

STARTCHAR char191
ENCODING 191
SWIDTH 49 0
DWIDTH 8 0
BBX 6 10 0 0
BITMAP
10
00
10
10
20
40
C0
84
C4
78
ENDCHAR

STARTCHAR char192
ENCODING 192
SWIDTH 55 0
DWIDTH 9 0
BBX 8 12 0 0
BITMAP
10
00
18
38
3C
24
64
66
7E
C3
83
81
ENDCHAR

STARTCHAR char193
ENCODING 193
SWIDTH 55 0
DWIDTH 9 0
BBX 8 12 0 0
BITMAP
18
10
18
38
3C
24
64
66
7E
C3
83
81
ENDCHAR

STARTCHAR char194
ENCODING 194
SWIDTH 55 0
DWIDTH 9 0
BBX 8 13 0 0
BITMAP
18
38
00
18
38
3C
24
64
66
7E
C3
83
81
ENDCHAR

STARTCHAR char195
ENCODING 195
SWIDTH 55 0
DWIDTH 9 0
BBX 8 12 0 0
BITMAP
7C
00
18
38
3C
24
64
66
7E
C3
83
81
ENDCHAR

STARTCHAR char196
ENCODING 196
SWIDTH 55 0
DWIDTH 9 0
BBX 8 13 0 0
BITMAP
04
24
00
38
3C
34
64
66
42
FE
C3
83
81
ENDCHAR

STARTCHAR char197
ENCODING 197
SWIDTH 55 0
DWIDTH 9 0
BBX 8 13 0 0
BITMAP
18
18
18
10
38
38
24
64
66
7E
C2
83
81
ENDCHAR

STARTCHAR char198
ENCODING 198
SWIDTH 23 0
DWIDTH 14 0
BBX 13 10 -1 0
BITMAP
0FF8
1A00
1200
1200
33F8
2200
7E00
6200
4200
C3F8
ENDCHAR

STARTCHAR char199
ENCODING 199
SWIDTH 61 0
DWIDTH 10 0
BBX 9 13 0 -3
BITMAP
3E00
6100
C180
8000
8000
8000
C080
4180
6300
3E00
0000
0800
0800
ENDCHAR

STARTCHAR char200
ENCODING 200
SWIDTH 55 0
DWIDTH 9 0
BBX 7 12 1 0
BITMAP
20
00
FE
80
80
80
FC
80
80
80
80
FE
ENDCHAR

STARTCHAR char201
ENCODING 201
SWIDTH 55 0
DWIDTH 9 0
BBX 7 12 1 0
BITMAP
30
20
FE
80
80
80
FC
80
80
80
80
FE
ENDCHAR

STARTCHAR char202
ENCODING 202
SWIDTH 55 0
DWIDTH 9 0
BBX 7 13 1 0
BITMAP
30
30
00
FE
80
80
80
FC
80
80
80
80
FE
ENDCHAR

STARTCHAR char203
ENCODING 203
SWIDTH 55 0
DWIDTH 9 0
BBX 7 13 1 0
BITMAP
10
50
00
FE
80
80
80
FC
80
80
80
80
FE
ENDCHAR

STARTCHAR char204
ENCODING 204
SWIDTH 18 0
DWIDTH 3 0
BBX 2 12 0 0
BITMAP
40
00
40
40
40
40
40
40
40
40
40
40
ENDCHAR

STARTCHAR char205
ENCODING 205
SWIDTH 18 0
DWIDTH 3 0
BBX 2 12 1 0
BITMAP
80
80
80
80
80
80
80
80
80
80
80
80
ENDCHAR

STARTCHAR char206
ENCODING 206
SWIDTH 18 0
DWIDTH 3 0
BBX 5 13 -1 0
BITMAP
20
50
00
20
20
20
20
20
20
20
20
20
20
ENDCHAR

STARTCHAR char207
ENCODING 207
SWIDTH 18 0
DWIDTH 3 0
BBX 3 13 0 0
BITMAP
20
A0
00
40
40
40
40
40
40
40
40
40
40
ENDCHAR

STARTCHAR char209
ENCODING 209
SWIDTH 61 0
DWIDTH 10 0
BBX 7 12 1 0
BITMAP
7C
00
82
C2
E2
A2
92
9A
8A
8E
86
82
ENDCHAR

STARTCHAR char210
ENCODING 210
SWIDTH 5 0
DWIDTH 11 0
BBX 9 12 0 0
BITMAP
0800
0000
3E00
6100
C080
8080
8080
8080
8080
4100
6300
3E00
ENDCHAR

STARTCHAR char211
ENCODING 211
SWIDTH 5 0
DWIDTH 11 0
BBX 9 12 0 0
BITMAP
0C00
0800
3E00
6100
C080
8080
8080
8080
8080
4100
6300
3E00
ENDCHAR

STARTCHAR char212
ENCODING 212
SWIDTH 5 0
DWIDTH 11 0
BBX 9 13 0 0
BITMAP
0800
1400
0000
3E00
6100
C080
8080
8080
8080
8080
4100
6300
3E00
ENDCHAR

STARTCHAR char213
ENCODING 213
SWIDTH 5 0
DWIDTH 11 0
BBX 9 12 0 0
BITMAP
3E00
0000
3E00
6100
C080
8080
8080
8080
8080
4100
6300
3E00
ENDCHAR

STARTCHAR char214
ENCODING 214
SWIDTH 5 0
DWIDTH 11 0
BBX 9 13 0 0
BITMAP
0400
1400
0000
3E00
6100
C080
8080
8080
8080
8080
4100
6300
3E00
ENDCHAR

STARTCHAR char216
ENCODING 216
SWIDTH 5 0
DWIDTH 11 0
BBX 10 10 0 0
BITMAP
3E80
6100
4280
8280
8480
8880
9080
6100
6300
BE00
ENDCHAR

STARTCHAR char217
ENCODING 217
SWIDTH 61 0
DWIDTH 10 0
BBX 7 12 1 0
BITMAP
30
00
82
82
82
82
82
82
82
82
44
38
ENDCHAR

STARTCHAR char218
ENCODING 218
SWIDTH 61 0
DWIDTH 10 0
BBX 7 12 1 0
BITMAP
10
10
82
82
82
82
82
82
82
82
44
38
ENDCHAR

STARTCHAR char219
ENCODING 219
SWIDTH 61 0
DWIDTH 10 0
BBX 7 13 1 0
BITMAP
30
38
00
82
82
82
82
82
82
82
82
44
38
ENDCHAR

STARTCHAR char220
ENCODING 220
SWIDTH 61 0
DWIDTH 10 0
BBX 7 12 1 0
BITMAP
28
00
82
82
82
82
82
82
82
82
44
38
ENDCHAR

STARTCHAR char222
ENCODING 222
SWIDTH 29 0
DWIDTH 15 0
BBX 0 0 0 0
BITMAP
ENDCHAR

STARTCHAR char223
ENCODING 223
SWIDTH 49 0
DWIDTH 8 0
BBX 6 10 1 0
BITMAP
70
88
88
98
B0
88
8C
8C
88
B0
ENDCHAR

STARTCHAR char224
ENCODING 224
SWIDTH 49 0
DWIDTH 8 0
BBX 7 9 0 0
BITMAP
30
00
7C
C4
0C
74
84
8C
76
ENDCHAR

STARTCHAR char225
ENCODING 225
SWIDTH 49 0
DWIDTH 8 0
BBX 7 9 0 0
BITMAP
10
10
7C
C4
0C
74
84
8C
76
ENDCHAR

STARTCHAR char226
ENCODING 226
SWIDTH 49 0
DWIDTH 8 0
BBX 7 10 0 0
BITMAP
30
28
00
7C
C4
0C
74
84
8C
76
ENDCHAR

STARTCHAR char227
ENCODING 227
SWIDTH 49 0
DWIDTH 8 0
BBX 7 10 0 0
BITMAP
38
58
00
7C
C4
0C
74
84
8C
76
ENDCHAR

STARTCHAR char228
ENCODING 228
SWIDTH 49 0
DWIDTH 8 0
BBX 7 10 0 0
BITMAP
08
28
00
7C
44
1C
74
84
CC
76
ENDCHAR

STARTCHAR char229
ENCODING 229
SWIDTH 49 0
DWIDTH 8 0
BBX 7 10 0 0
BITMAP
18
18
00
7C
44
1C
74
84
8C
76
ENDCHAR

STARTCHAR char230
ENCODING 230
SWIDTH 17 0
DWIDTH 13 0
BBX 11 7 0 0
BITMAP
7BC0
8420
1C20
7FE0
8400
8E60
F3C0
ENDCHAR

STARTCHAR char231
ENCODING 231
SWIDTH 49 0
DWIDTH 8 0
BBX 7 10 0 -3
BITMAP
7C
C6
80
80
82
46
3C
00
10
10
ENDCHAR

STARTCHAR char232
ENCODING 232
SWIDTH 49 0
DWIDTH 8 0
BBX 7 9 0 0
BITMAP
30
00
7C
C4
C6
FE
80
44
3C
ENDCHAR

STARTCHAR char233
ENCODING 233
SWIDTH 49 0
DWIDTH 8 0
BBX 7 9 0 0
BITMAP
10
10
7C
C4
C6
FE
80
44
3C
ENDCHAR

STARTCHAR char234
ENCODING 234
SWIDTH 49 0
DWIDTH 8 0
BBX 7 10 0 0
BITMAP
30
68
00
7C
C4
C6
FE
80
44
3C
ENDCHAR

STARTCHAR char235
ENCODING 235
SWIDTH 49 0
DWIDTH 8 0
BBX 7 9 0 0
BITMAP
68
00
7C
C4
C6
FE
80
44
3C
ENDCHAR

STARTCHAR char236
ENCODING 236
SWIDTH 18 0
DWIDTH 3 0
BBX 2 9 0 0
BITMAP
40
00
40
40
40
40
40
40
40
ENDCHAR

STARTCHAR char237
ENCODING 237
SWIDTH 18 0
DWIDTH 3 0
BBX 2 9 1 0
BITMAP
80
80
80
80
80
80
80
80
80
ENDCHAR

STARTCHAR char238
ENCODING 238
SWIDTH 18 0
DWIDTH 3 0
BBX 5 10 -1 0
BITMAP
60
50
00
20
20
20
20
20
20
20
ENDCHAR

STARTCHAR char239
ENCODING 239
SWIDTH 18 0
DWIDTH 3 0
BBX 3 9 0 0
BITMAP
A0
00
40
40
40
40
40
40
40
ENDCHAR

STARTCHAR char241
ENCODING 241
SWIDTH 49 0
DWIDTH 8 0
BBX 6 10 1 0
BITMAP
78
50
00
F8
84
84
84
84
84
84
ENDCHAR

STARTCHAR char242
ENCODING 242
SWIDTH 49 0
DWIDTH 8 0
BBX 7 9 0 0
BITMAP
30
00
78
C4
82
82
82
44
38
ENDCHAR

STARTCHAR char243
ENCODING 243
SWIDTH 49 0
DWIDTH 8 0
BBX 7 9 0 0
BITMAP
10
10
78
C4
82
82
82
44
38
ENDCHAR

STARTCHAR char244
ENCODING 244
SWIDTH 49 0
DWIDTH 8 0
BBX 7 10 0 0
BITMAP
30
28
00
78
C4
82
82
82
44
38
ENDCHAR

STARTCHAR char245
ENCODING 245
SWIDTH 49 0
DWIDTH 8 0
BBX 7 10 0 0
BITMAP
38
48
00
78
C4
82
82
82
44
38
ENDCHAR

STARTCHAR char246
ENCODING 246
SWIDTH 49 0
DWIDTH 8 0
BBX 7 10 0 0
BITMAP
08
28
38
64
C6
82
82
82
44
38
ENDCHAR

STARTCHAR char247
ENCODING 247
SWIDTH 49 0
DWIDTH 8 0
BBX 7 5 0 1
BITMAP
10
00
FE
00
10
ENDCHAR

STARTCHAR char248
ENCODING 248
SWIDTH 49 0
DWIDTH 8 0
BBX 7 7 0 0
BITMAP
7E
C6
8A
92
E2
44
F8
ENDCHAR

STARTCHAR char249
ENCODING 249
SWIDTH 49 0
DWIDTH 8 0
BBX 6 9 1 0
BITMAP
20
00
84
84
84
84
84
8C
74
ENDCHAR

STARTCHAR char250
ENCODING 250
SWIDTH 49 0
DWIDTH 8 0
BBX 6 9 1 0
BITMAP
30
20
84
84
84
84
84
8C
74
ENDCHAR

STARTCHAR char251
ENCODING 251
SWIDTH 49 0
DWIDTH 8 0
BBX 6 10 1 0
BITMAP
30
58
00
84
84
84
84
84
8C
74
ENDCHAR

STARTCHAR char252
ENCODING 252
SWIDTH 49 0
DWIDTH 8 0
BBX 6 10 1 0
BITMAP
10
50
0C
8C
8C
8C
8C
8C
9C
6C
ENDCHAR

STARTCHAR char255
ENCODING 255
SWIDTH 43 0
DWIDTH 7 0
BBX 7 11 0 -2
BITMAP
48
00
84
84
4C
48
28
30
30
30
E0
ENDCHAR
ENDFONT
